<svg width="46" height="46" viewBox="0 0 46 46" fill="none" xmlns="http://www.w3.org/2000/svg">
<g id="Frame 35128">
<rect width="46" height="46" rx="23" fill="#0074E5"/>
<g id="Group 2">
<path id="Ellipse 3" d="M30 13.9224C30 15.5363 28.6916 16.8447 27.0776 16.8447C28.3635 16.5817 29.5251 15.347 30 13.9224Z" fill="white"/>
<path id="Union" fill-rule="evenodd" clip-rule="evenodd" d="M27.0776 16.8447C28.6916 16.8447 30 15.5364 30 13.9224C30 12.3084 28.6916 11 27.0776 11C25.4636 11 24.1553 12.3084 24.1553 13.9224C24.1553 15.5364 25.4636 16.8447 27.0776 16.8447ZM27.0776 15.449C26.2345 15.449 25.551 14.7655 25.551 13.9224C25.551 13.0793 26.2345 12.3958 27.0776 12.3958C27.9207 12.3958 28.6042 13.0793 28.6042 13.9224C28.6042 14.7655 27.9207 15.449 27.0776 15.449ZM29.9635 33.1004V16.8447L23.4612 21.5936V25.8419L20.5023 27.5048V23.0412L14 27.3761V33.1004H15.4612V28.1581L19.0411 25.7715V33.1004H20.5023V29.1809L23.4612 27.518V33.1004H24.9224V22.7625L28.5023 20.242V33.1004H29.9635Z" fill="white"/>
<path id="Vector 2" d="M30 33.1003H28.5034C29.4313 33.1003 29.8504 26.2571 29.9626 22.8354L30 33.1003Z" fill="white"/>
<path id="Vector 1 (Stroke)" d="M24.9224 33.1004H23.4612V27.518L20.5023 29.1809V33.1004H19.0411V25.7715L15.4612 28.1581V33.1004H14V27.3761L20.5023 23.0413V27.5048L23.4612 25.8419L24.9224 24.9909V33.1004Z" fill="white"/>
<path id="Vector 3" d="M24.9224 33.1005H23.4628C24.3677 33.1005 24.8129 28.4131 24.9224 24.9915V33.1005Z" fill="white"/>
</g>
</g>
</svg>
